/* XPM */
static char *_98ac166ff524914a5197c5df142ce89f9pz5HNV7682rZv6[] = {
/* columns rows colors chars-per-pixel */
"32 32 5 1 ",
"  c #00BCD4",
". c #2196F3",
"X c #03A9F4",
"o c #05DAF2",
"O c #00BCD4",
/* pixels */
"                                ",
"  .                           . ",
"                      .  O oo   ",
" O oo  o               o      o ",
"    XXXoo o           oo    XX  ",
" ooX.. XX   o    o     XXXX    X",
"oX  .... XX      X X  .. . .....",
"X..     ..XXXXX    .. .        .",
".         ...... .              ",
"   .                            ",
"                       .     .  ",
"     O   oo  oo                 ",
"     o      XXX    o            ",
"   oo XXXX         oo           ",
"o   XXX    ..  . XX    oo       ",
"  X X .  ..         XX     O    ",
"  X..       .     ..        o   ",
"X..                 .. ..XX   o ",
"X.             o        . XX X  ",
".    .    .     X o       .  ...",
"               .X               ",
"                  X o           ",
"       o          ..X   o       ",
"   o  XX  ooo  o       .    o   ",
"o  XX     XXX  oo          .oo o",
"o X  .....  X  X   o       ..  o",
"X  .           XXX o   O       .",
".           .. .   X  o         ",
"        .        . XX o  XXX XX ",
"                   .  XX  o     ",
"                      .  .  .   ",
"    .    .    .                 "
};
