/* XPM */
static char *_c0d5ee72c9a47b4bc4b98caeab6c4b4fEXxfZhXrX3T3WFP[] = {
/* columns rows colors chars-per-pixel */
"33 33 5 1 ",
"  c #00BCD4",
". c #2196F3",
"X c #03A9F4",
"o c #05E6E6",
"O c white",
/* pixels */
"                                 ",
"                       O oo      ",
"         O             oXXXXXo   ",
"  oXXXXXXo         o oXX.....XXo ",
" oXXX...XXXo      oXXX...   ...X ",
"oXX..   ....XXo oXXX..         .X",
"X...        .. XXX..            .",
".             .  .              .",
"                                 ",
"                                 ",
"                            O    ",
"    O                            ",
"    XoXXoXXoXX             o     ",
"  oXX.. .... XoX   O      oXXXXo.",
". X..       . .XoXXo    XX.....XX",
"X.             ...XXXXXoX.     ..",
"                  .. ...         ",
"                                 ",
"   X             X               ",
"        X                   O  oX",
"                             X. .",
"             oO     X      oX..  ",
"     ooXXo..XXo            X.    ",
"  oXXX..... ..XXo        X..     ",
"oXX....       ..Xo               ",
"X...            . XXo            ",
".                 .X  XoXo   OoXX",
"                    ..XXXX XoXXX.",
"                       . . .. .. ",
"      X                          ",
"   X      X                      ",
"           X   X                 ",
"                  X              "
};
