/* XPM */
static char *f8f8233f6cb6417f830b3dd50cf87d66IlVhCeGjCNOTDNz3[] = {
/* columns rows colors chars-per-pixel */
"32 32 5 1 ",
"  c #00BCD4",
". c #2196F3",
"X c #03A9F4",
"o c #05E6E6",
"O c #00BCD4",
/* pixels */
"                                ",
"          X                     ",
"             X                  ",
"    oXXXX            X o O   X  ",
"   XXX..Xo         oXXXXXo     X",
" oX..   .Xo     O  X... XXX o   ",
"XX.      .Xo    oXX.    ...XXo  ",
"X.        XXX   XX.        ..XXX",
".         .. XXX.             ..",
"              .         X       ",
"              o                 ",
"     oO  oXXXXXXXXXXo           ",
"    oXXXXX.... ... XXXo    oXXXo",
"  oXX....       .   .XXX  XX.X.X",
"XXX.                  .XXXX.   .",
"..           X          ..      ",
"                                ",
"               X                ",
"                                ",
"         oO         X         oX",
"      oXX.XXXo             oXXXo",
"  oXXXX. .  .XX           oX..XX",
" oX...       .Xo         oX.   .",
"XX.           .Xo  O  oXX.      ",
".              .XXXXX.XX.       ",
"        O   X    ...  .         ",
"      oo                     X  ",
"    XX.Xo       X               ",
"  XX.  .XXXo                    ",
" oX.     ..XXo              O   ",
" X.        ..XXXo    o    Xo Xo ",
"X.            .XXXX  XXXXX.XX.X "
};
