/* XPM */
static char *_2e383577037416f87640de18c5d8734YyxslYs1NkXeMHdn[] = {
/* columns rows colors chars-per-pixel */
"33 33 5 1 ",
"  c #00BCD4",
". c #2196F3",
"X c #03A9F4",
"o c #05E6E6",
"O c white",
/* pixels */
"                                 ",
"          X                      ",
"             X                   ",
"    oXXXX            X o O   X   ",
"   XXX..Xo         oXXXXXo     X ",
" oX..   .Xo     O  X... XXX o    ",
"XX.      .Xo    oXX.    ...XXo   ",
"X.        XXX   XX.        ..XXXX",
".         .. XXX.             ...",
"              .         X        ",
"              o                  ",
"     oO  oXXXXXXXXXXo            ",
"    oXXXXX.... ... XXXo    oXXXoo",
"  oXX....       .   .XXX  XX.X.Xo",
"XXX.                  .XXXX.   .X",
"..           X          ..      .",
"                                 ",
"               X                 ",
"                                 ",
"         oO         X         oX ",
"      oXX.XXXo             oXXXo ",
"  oXXXX. .  .XX           oX..XX ",
" oX...       .Xo         oX.   .X",
"XX.           .Xo  O  oXX.      .",
".              .XXXXX.XX.        ",
"        O   X    ...  .          ",
"      oo                     X   ",
"    XX.Xo       X                ",
"  XX.  .XXXo                     ",
" oX.     ..XXo              O    ",
" X.        ..XXXo    o    Xo Xo  ",
"X.            .XXXX  XXXXX.XX.X X",
".               ..XXX..    .  XX."
};
