/* XPM */
static char *_dcb9ac8f9c64c9db1c7120c3598f40bO5ouOdKSpUUeWNsG[] = {
/* columns rows colors chars-per-pixel */
"32 32 5 1 ",
"  c #00BCD4",
". c #2196F3",
"X c #03A9F4",
"o c #05E6E6",
"O c #00BCD4",
/* pixels */
"                                ",
"   .                        .   ",
"     XXXXo         O            ",
"  oXX. ..XXo                    ",
" oX.      .XXo           oXXXXXX",
"XX.        .XXXo        XX. .. .",
".            .XXXo    oXX.      ",
"               ..XXXXXX.        ",
"    O    .        ...           ",
"                                ",
"                                ",
"        XXXo        O           ",
"  o    X.. XXo          oX.XXo  ",
" oXXXXXX   .XXXo      XXXX..XXo ",
"oX.....     . .Xo   XXX.    .XXo",
"X.             .XXXXX.       .XX",
".                ...           .",
"                                ",
"           oXXo                 ",
"      O  oXXX.XXXo       .      ",
"        oX..  ..XXo        O    ",
" XXo  oXX.       .Xo        oo  ",
"X..XXXX.          .XXo     oXXXX",
".  ...              .XXXXXXX... ",
"          .          .... .     ",
"              .                 ",
"                                ",
"    oo  O               o       ",
" oXXXXXXo       ooXXXX.XXo O  o ",
" XX... . Xo  oXXX...   .XXX oXXX",
"XX.     .XX  XX.        . .XX. .",
"          ....      .       .   "
};
