/* XPM */
static char *c0f64f7d39134194e778180145fe42e6TwW2L3zFpgxNOxpN[] = {
/* columns rows colors chars-per-pixel */
"33 33 5 1 ",
"  c #00BCD4",
". c #2196F3",
"X c #03A9F4",
"o c #05DAF2",
"O c white",
/* pixels */
"                                 ",
"  .                           .  ",
"                      .  O oo    ",
" O oo  o               o      o  ",
"    XXXoo o           oo    XX  o",
" ooX.. XX   o    o     XXXX    X ",
"oX  .... XX      X X  .. . ......",
"X..     ..XXXXX    .. .        ..",
".         ...... .              .",
"   .                             ",
"                       .     .   ",
"     O   oo  oo                  ",
"     o      XXX    o             ",
"   oo XXXX         oo            ",
"o   XXX    ..  . XX    oo        ",
"  X X .  ..         XX     O     ",
"  X..       .     ..        o    ",
"X..                 .. ..XX   o X",
"X.             o        . XX X  .",
".    .    .     X o       .  ....",
"               .X                ",
"                  X o            ",
"       o          ..X   o        ",
"   o  XX  ooo  o       .    o    ",
"o  XX     XXX  oo          .oo o ",
"o X  .....  X  X   o       ..  oo",
"X  .           XXX o   O       ..",
".           .. .   X  o         .",
"        .        . XX o  XXX XX  ",
"                   .  XX  o     X",
"                      .  .  .    ",
"    .    .    .                  ",
"                                 "
};
