/* XPM */
static char *_0798867253647eeff5c193abbe82402K7fQcI6ueKuo6JIi[] = {
/* columns rows colors chars-per-pixel */
"32 32 5 1 ",
"  c #00BCD4",
". c #2196F3",
"X c #03A9F4",
"o c #05E6E6",
"O c #00BCD4",
/* pixels */
"                                ",
"                       O oo     ",
"         O             oXXXXXo  ",
"  oXXXXXXo         o oXX.....XXo",
" oXXX...XXXo      oXXX...   ...X",
"oXX..   ....XXo oXXX..         .",
"X...        .. XXX..            ",
".             .  .              ",
"                                ",
"                                ",
"                            O   ",
"    O                           ",
"    XoXXoXXoXX             o    ",
"  oXX.. .... XoX   O      oXXXXo",
". X..       . .XoXXo    XX.....X",
"X.             ...XXXXXoX.     .",
"                  .. ...        ",
"                                ",
"   X             X              ",
"        X                   O  o",
"                             X. ",
"             oO     X      oX.. ",
"     ooXXo..XXo            X.   ",
"  oXXX..... ..XXo        X..    ",
"oXX....       ..Xo              ",
"X...            . XXo           ",
".                 .X  XoXo   OoX",
"                    ..XXXX XoXXX",
"                       . . .. ..",
"      X                         ",
"   X      X                     ",
"           X   X                "
};
