/* XPM */
static char *_77f21c7c8634ecedda2be8fd2bfd0440dlhRouKy5NRyICz[] = {
/* columns rows colors chars-per-pixel */
"33 33 5 1 ",
"  c #00BCD4",
". c #2196F3",
"X c #03A9F4",
"o c #05E6E6",
"O c white",
/* pixels */
"                                 ",
"   .                        .    ",
"     XXXXo         O             ",
"  oXX. ..XXo                     ",
" oX.      .XXo           oXXXXXXX",
"XX.        .XXXo        XX. .. .X",
".            .XXXo    oXX.      .",
"               ..XXXXXX.         ",
"    O    .        ...            ",
"                                 ",
"                                 ",
"        XXXo        O            ",
"  o    X.. XXo          oX.XXo   ",
" oXXXXXX   .XXXo      XXXX..XXo  ",
"oX.....     . .Xo   XXX.    .XXo ",
"X.             .XXXXX.       .XXX",
".                ...           .X",
"                                 ",
"           oXXo                  ",
"      O  oXXX.XXXo       .       ",
"        oX..  ..XXo        O     ",
" XXo  oXX.       .Xo        oo   ",
"X..XXXX.          .XXo     oXXXXX",
".  ...              .XXXXXXX... .",
"          .          .... .      ",
"              .                  ",
"                                 ",
"    oo  O               o        ",
" oXXXXXXo       ooXXXX.XXo O  o  ",
" XX... . Xo  oXXX...   .XXX oXXXX",
"XX.     .XX  XX.        . .XX. .X",
"          ....      .       .    ",
"                                 "
};
