/* XPM */
static char *f96dd566300a4cb6c68eecb3cfb310d6EDXDxFdbyEn38vGW[] = {
/* columns rows colors chars-per-pixel */
"32 32 6 1 ",
"  c None",
". c #242E63",
"X c #394BA6",
"o c #3F51B5",
"O c #4257C2",
"+ c #4A62D9",
/* pixels */
"               oo               ",
"              oooo              ",
"              oooo              ",
"              XXXX              ",
"             XooooX             ",
"            oooooooo            ",
"            oooooooo            ",
"           oooo+oooo            ",
"           oooo++ooo            ",
"          XooooO+ooo            ",
"          XooooO+oooX           ",
"         XXooooOO+ooXX          ",
"         XXooo.OO+ooXX          ",
"         XXooo.OOoooXXX         ",
"        XXXoooo.OoooXXX         ",
"        XX ooooooooo XX         ",
"        X  oooooooo   X         ",
"            ooooooo             ",
"             oooooo             ",
"             ooooo              ",
"              oooo              ",
"              ooo               ",
"              ooo               ",
"              ooo               ",
"              ooo               ",
"              ooo               ",
"              ooo               ",
"             ++o+++             ",
"           ++++++++++           ",
"          ++++    ++++          ",
"         +++        +++         ",
"                                "
};
