/* XPM */
static char *_6f3aac6832c4b16f3dc4cdf37f56d9ei6SucXRdw3TBBOGU[] = {
/* columns rows colors chars-per-pixel */
"32 32 6 1 ",
"  c None",
". c #242E63",
"X c #394BA6",
"o c #3F51B5",
"O c #4257C2",
"+ c #4A62D9",
/* pixels */
"                                ",
"         +++        +++         ",
"          ++++    ++++          ",
"           ++++++++++           ",
"             +++o++             ",
"               ooo              ",
"               ooo              ",
"               ooo              ",
"               ooo              ",
"               ooo              ",
"               ooo              ",
"              oooo              ",
"              ooooo             ",
"             oooooo             ",
"             ooooooo            ",
"         X   oooooooo  X        ",
"         XX ooooooooo XX        ",
"         XXXoooO.ooooXXX        ",
"         XXXoooOO.oooXX         ",
"          XXoo+OO.oooXX         ",
"          XXoo+OOooooXX         ",
"           Xooo+OooooX          ",
"            ooo+OooooX          ",
"            ooo++oooo           ",
"            oooo+oooo           ",
"            oooooooo            ",
"            oooooooo            ",
"             XooooX             ",
"              XXXX              ",
"              oooo              ",
"              oooo              ",
"               oo               "
};
