/* XPM */
static char *result[] = {
/* columns rows colors chars-per-pixel */
"32 32 4 1 ",
"  c black",
". c #3F51B5",
"X c white",
"o c None",
/* pixels */
"oooooooooooooooooooooooooooooooo",
"ooooooooooooooo...oooooooooooooo",
"oooooooooooooooo...ooooooooooooo",
"ooooooooooooooooo...oooooooooooo",
"ooooooooooooooooo....ooooooooooo",
"ooooooooooooooooo.....oooooooooo",
"ooooooooooooooo...........oooooo",
"ooooooooooooo..............ooooo",
"oooooooooooo................oooo",
"ooooooooooo..................ooo",
"ooooooooo...........X.........oo",
"...ooooo......................oo",
"o....oo.........XXXXX.....X ...o",
"oo....o........XXXXXXX....  ...o",
"oooo..........XXXXXoXXXXX.......",
"ooooo.......XXXXXXXXXXXXoXX.....",
"ooooo.......XoXoXXooo....oXXXXXX",
"oooo.....XXXooooooo.....oooooooo",
"oo....ooooooooooooo....ooooooooo",
"oo...ooooooooooooo...ooooooooooo",
"o...ooooooooooooo..ooooooooooooo",
"o.oooooooooooooooooooooooooooooo",
"oooooooooooooooooooooooooooooooo",
"oooooooooooooooooooooooooooooooo",
"oooooooooooooooooooooooooooooooo",
"oooooooooooooooooooooooooooooooo",
"oooooooooooooooooooooooooooooooo",
"oooooooooooooooooooooooooooooooo",
"oooooooooooooooooooooooooooooooo",
"oooooooooooooooooooooooooooooooo",
"oooooooooooooooooooooooooooooooo",
"oooooooooooooooooooooooooooooooo"
};
