/* XPM */
static char *e78105fbbe7d40adac6ad9bd115e3c7a3Oq1DUbI4FtsApgk[] = {
/* columns rows colors chars-per-pixel */
"32 32 4 1 ",
"  c None",
". c black",
"X c #3F51B5",
"o c white",
/* pixels */
"                                ",
"              XXX               ",
"             XXX                ",
"            XXX                 ",
"           XXXX                 ",
"          XXXXX                 ",
"      XXXXXXXXXXX               ",
"     XXXXXXXXXXXXXX             ",
"    XXXXXXXXXXXXXXXX            ",
"   XXXXXXXXXXXXXXXXXX           ",
"  XXXXXXXXXoXXXXXXXXXXX         ",
"  XXXXXXXXXXXXXXXXXXXXXX     XXX",
" XXX.oXXXXXoooooXXXXXXXXX  XXXX ",
" XXX..XXXXoooooooXXXXXXXX XXXX  ",
"XXXXXXXooooo oooooXXXXXXXXXX    ",
"XXXXXoo ooooooooooooXXXXXXX     ",
"oooooo XXXX   oo o oXXXXXXX     ",
"        XXXXX       oooXXXXX    ",
"         XXXX             XXXX  ",
"           XXX             XXX  ",
"             XX             XXX ",
"                              X ",
"                                ",
"                                ",
"                                ",
"                                ",
"                                ",
"                                ",
"                                ",
"                                ",
"                                ",
"                                "
};
