/* XPM */
static char *_cbec96a1e074ed3830e35023b1ed82332736jgjMvPhUPtu[] = {
/* columns rows colors chars-per-pixel */
"32 32 7 1 ",
"  c None",
". c black",
"X c #FF9800",
"o c #FFCCD1",
"O c #FFCDD2",
"+ c #FCE4EC",
"@ c white",
/* pixels */
"                                ",
"                                ",
"                                ",
"                                ",
"                                ",
"                                ",
"              XX                ",
"             XoXX               ",
"             XXoXX              ",
"            XoXXoXX         XXXX",
"       XXXX+XXoXXoX      XXXXooo",
"      XXXXXX+XXX+XXX    oooooXXX",
"     XXXX@.XX+XXX+XX+XXXXXoXXX  ",
"     XXXX..XX++XXX+XX+XXXXXXXX  ",
"    XXXXXXXXX++XXX+XXX+XXXXX    ",
"   XXXXXXXXXX++XXX+XXX+OOOXX    ",
"   XXXXXXXXXX++XXX+XXX+XXXO     ",
"   XXXXXXXXX++XXXX+XXX+XXXX     ",
"    XXXXXXX++XXXX+XXX+XXXXO     ",
"     XXXXX++XXXXX+XX+XOOOOX     ",
"       X+++XXXXX+XXX XXXXXX     ",
"            XXX+XX    XXXXXX    ",
"              XXoX     XXXXX    ",
"               XXoX     XXXXX   ",
"                XoXX     XXXXX  ",
"                 XoX       XXXX ",
"                  X             ",
"                                ",
"                                ",
"                                ",
"                                ",
"                                "
};
