/* XPM */
static char *_4c1805314284c36fcdd5f887847a3e11pmJkiemlAmuVCbe[] = {
/* columns rows colors chars-per-pixel */
"32 32 9 1 ",
"  c None",
". c black",
"X c #FE9800",
"o c #FF9800",
"O c #FFCCD1",
"+ c #FECCD2",
"@ c #FFCDD2",
"# c #FCE4EC",
"$ c white",
/* pixels */
"                                ",
"                                ",
"                                ",
"                                ",
"              oo                ",
"              ooo               ",
"              oOoo              ",
"              OoOoo             ",
"              oOoOXo            ",
"              ooOoOoo           ",
"       oooo#ooOooOoOoo      oXoo",
"      oooooo#oo#oo##Oo    ooOOOO",
"     oooo$.oo#oo#ooo#oo  oo+ooXX",
"     oooo..oo#ooo#ooo#ooo+ooooo ",
"    ooooooooo##ooo#oo#oooooooo  ",
"   oooooooooo##ooo#ooo#+++oo    ",
"   oooooooooo#oooo#ooo#ooo@     ",
"   ooooooooo##ooo#ooo#ooooo     ",
"    ooooooo##oooo#ooo#oooo@     ",
"     ooooo##oooo#oo##o++@@oo    ",
"       o###oooo#oooo ooooooooo+ ",
"            oo#ooooo  ooooooo+oo",
"               ooOoo     ooooooo",
"                ooOoo      oooo ",
"                 ooOo        o  ",
"                   oO           ",
"                                ",
"                                ",
"                                ",
"                                ",
"                                ",
"                                "
};
