/* XPM */
static char *_c8672d341fb4376db1768e665a23a19PbCcx6cHGxN6tw9y[] = {
/* columns rows colors chars-per-pixel */
"32 32 6 1 ",
"  c None",
". c black",
"X c #FF9800",
"o c #FFCDD2",
"O c #FCE4EC",
"+ c white",
/* pixels */
"                                ",
"                                ",
"                                ",
"                                ",
"                                ",
"               X                ",
"              oXX               ",
"             XXoXX              ",
"             oXXoXX         XXX ",
"            XXoXXoXX     XXXXXX ",
"       XXXXOXXXoXXoXX   XXXXXXX ",
"      XXXXXXOXXXOXXX   oooXXXo  ",
"     XXXX+.XXOXXXOXXOXXXXXoooX  ",
"     XXXX..XXOOXXXOXXOXXXXXXX   ",
"    XXXXXXXXXOOXXXOXXXOXXXXX    ",
"   XXXXXXXXXXOOXXXOXXXOoooX     ",
"   XXXXXXXXXXOOXXXOXXXOXXXo     ",
"   XXXXXXXXXOOXXXXOXXXOXXXX     ",
"    XXXXXXXOOXXXXOXXXOXXXXo     ",
"     XXXXXOOXXXXXOXXOXooooXX    ",
"       XOOOXXXXXOXXX XXXXXXX    ",
"            XXXOXXo   XXXXXXX   ",
"               XoXXo   XXXXXX   ",
"                XoXX     XXXXX  ",
"                 XoX       XXXX ",
"                 XX             ",
"                                ",
"                                ",
"                                ",
"                                ",
"                                ",
"                                "
};
