/* XPM */
static char *ccfe8d23896c42b8d20bcdb1c740b44fwKds0kOHAmqdq6v8[] = {
/* columns rows colors chars-per-pixel */
"32 32 9 1 ",
"  c None",
". c black",
"X c #FE9800",
"o c #FF9800",
"O c #FFCCD1",
"+ c #FECCD2",
"@ c #FFCDD2",
"# c #FCE4EC",
"$ c white",
/* pixels */
"                                ",
"                                ",
"                                ",
"                                ",
"                                ",
"              oo                ",
"              ooo               ",
"             oOooo              ",
"             ooOooo           oo",
"            oOooOooo        oooo",
"       oooo#ooOooOooo     oooOOO",
"      oooooo#oo#oo##oo   oooOOoo",
"     oooo$.oo#oo#ooo#oo ooOOooo ",
"     oooo..oo#ooo#ooo#ooOOoooo  ",
"    ooooooooo##ooo#oo#oooooo    ",
"   oooooooooo##ooo#ooo#+++o     ",
"   oooooooooo#oooo#ooo#ooo@     ",
"   ooooooooo##ooo#ooo#ooooo     ",
"    ooooooo##oooo#ooo#oooo@     ",
"     ooooo##oooo#oo##o++@@o     ",
"       o###oooo#ooo  oooooooo   ",
"            oo#oooo   oOOooooo  ",
"              oooOoo    OOOOOOOO",
"               oooOo      oooooo",
"                oooOo      oooo ",
"                  ooO           ",
"                                ",
"                                ",
"                                ",
"                                ",
"                                ",
"                                "
};
