/* XPM */
static char *fd0939cf30b44ecfc51e858558cbb212sgNxKNpgmXgzjM6N[] = {
/* columns rows colors chars-per-pixel */
"32 32 2 1 ",
"  c #00BCD4",
". c #4596EC",
/* pixels */
"................................",
"................................",
"................................",
"............... ......  ........",
".... .........  ................",
"................................",
"................................",
"............ ...................",
"............................. ..",
"..... .............   .... .. ..",
".......................... .. ..",
".......................... .....",
".......... ............... .....",
"................  ..............",
"...........  ...................",
"..... ...... ............... ...",
"..... ...................... ...",
".......................... . ...",
".......................... .....",
"..........................  ....",
"...  ............. .............",
".................  .............",
"........... .............. .....",
".......................... .....",
".......... .....................",
"........................... ....",
".....   ...........   ..........",
".. ......................... ...",
"................................",
"................................",
"................................",
"................................"
};
