/* XPM */
static char *_83117ff132745cfd2add17b38e82d87cc721tMhpB52abTI[] = {
/* columns rows colors chars-per-pixel */
"33 33 4 1 ",
"  c #2196F3",
". c #03A9F4",
"X c #54B9D1",
"o c white",
/* pixels */
"XXXXXXXXXXXXXXXXXXXXXXXXXXXXXXXXX",
"XXXXXXXXXXXXXXXXXXXXXXXXXXXXXXXXX",
"XXXXXXXXXX XXXXXXXXXXXXXXXXXXXXXX",
"XXXXX.XXXXXXXXXXXXXXXXXXX.XXXXXXX",
"XXXXXXXXXXXXXXXXXX XXXXXXXXXXXXXX",
"XXXXXX XXXXXXX.XXXXXXXX XXXXX XXX",
"XXXXXXXXXXXXXXXXXXXXXXXXXXXXXXXXX",
"XXXXXXXXXXXXXXXXXXXXXXXXXXXXXXXXX",
"XXX  XXXXXXXXXXXXXXXXXXXXXXXXXXXX",
"XXXXXXXXXXXXXXXXXX.XXXXXXX.XXXXX ",
"XXXXXX XXX  .XXXXXXXXXXXXXXXXXXXX",
"XXXXXXXXXXX..XXXXXXXXXXXXXXXXXXXX",
"XXXXX.XXXXXXX XXXXXX XXXoXXXXXXXX",
"XXXXXXXXXXXXXXXXXXXXXXXXXXXXXXXXX",
"XXXoXXXXXXXXXXX XX.XXXXXXXXXXXXXX",
"XXXXXXXXXXXXXXX XXXXXXXXXXXXXXXXX",
"XXXXX XXXXXXXXXXXXXXXXXXXXXXXX XX",
"XXXXXXXXX  XXXXXXXXXXXXXX.XXXXXXX",
"XXXXX.XXXXXXXXXXXXXXXXXXXXXXXXXXX",
"XX XX.XXXXXXXXXXXXXX XXXXXXXXXXXX",
"XXXXXXXX.XXXXXXXXXXXXXXXXXXXXXXXX",
"XXXXXXXXXXXXX..XXXXX.XXXXXX XXXXX",
"XXXXXXXXXXXXXX.XXXXXXXXXXXXXXXXXX",
"XXXXX XXXXXXXXXXXXXXXoXXXXXXXXXXX",
"XXXX  XXXXXXXXXX XXXXXXXXXXX.XXXX",
"X.XX XXXXXXXXXXXXXXXXX XXXXXXXXXX",
"XXXXXXXXXXXX.XXXXXXXXXXXXXXXXXXXX",
"XXXXXXXXXXXXXXXXXXX.XXX XXXXXXXXX",
"XXXXXXX.XXXXXXXXXXXXXXX XXXXXXXXX",
"XXXXXXXXXXXXX XXXXXXXXXXXXXXX.XXX",
"X XXXXXXXXXXXXXX.XXXXXXXXXXXXXXXX",
"XXXXX X XXXXXXXXXXXXXXXX XXXXXX X",
"XXXXXXXXXXXXXXXXXXXXXXXXXXXXXXXXX"
};
