/* XPM */
static char *_140578115e448e3af47d8de92fbccbeVkRqWfuHQwTiVlos[] = {
/* columns rows colors chars-per-pixel */
"32 32 12 1 ",
"  c None",
". c black",
"X c #1A237E",
"o c #795548",
"O c #D50000",
"+ c #303F9F",
"@ c #3F51B5",
"# c #607D8B",
"$ c #4358C4",
"% c #4961D6",
"& c #009688",
"* c gray62",
/* pixels */
"                                ",
"                 ***#           ",
"              #***oo***         ",
"            *****oo*****        ",
"           **oo*%%%%%*o##       ",
"          #*oo*%%%%%%%oo*       ",
"         ****%%%%%%%%%%o*       ",
"        #**%%%%$$$$$%%%**#      ",
"        *O%%%$$$$$$$$%%%O**     ",
"       #o*%$$$$@@@$$$$$%*o**    ",
"      #oo%$$$@@@@@@$$$$%%oo*#   ",
"     #**%%$$@@@+++@@$$$$%&o**   ",
"     #o*%$$@@++XXX+@@$$$%%&***  ",
"     **%%$$@+XXX.XX+@@$$$%%&o*  ",
"     #*%%$$@+X...XX+@@$$$%&&o*  ",
"     **%%$$@+XX.XX+@@$$$%%&***  ",
"    #*o%%$$@@+XXX+@@$$$$%%&**#  ",
"    *oo%%$$$@@+++@@$$$$%%%%*#   ",
"    **%%%%$$$@@@@@$$$$$%%%%*    ",
"    ***%%%$$$$@@@$$$$$%%%%**    ",
"    #*o*%%%$$$$$$$$$$%%%%***    ",
"     ***%%%$$$$$$$$%%%%%%*o*    ",
"     #*oo%%%%%$$%%%%%%%%&o*#    ",
"      **oo%%%%%%%****O**oo*     ",
"      #*oo*%%%%%****#**oo**     ",
"       **o**%%%**##  *****#     ",
"       #**#**%***               ",
"          ##****                ",
"                                ",
"                                ",
"                                ",
"                                "
};
