/* XPM */
static char *_d6af3264a404e229137541ac1a7d5b5t09hejkABRh5M2Nf[] = {
/* columns rows colors chars-per-pixel */
"32 32 2 1 ",
"  c black",
". c #75A964",
/* pixels */
"................................",
"................................",
"................................",
"................................",
"................................",
"................................",
"................................",
".........            ...........",
"......... ..........   .........",
"........  ............ .........",
"........ ............. .........",
"........ ............. .........",
"....... ..............  ........",
"....... .    . .... ... ........",
"....... . ..... .. .... ........",
"......  .   ....  ..... ........",
"...... ..  .....  ..... ........",
"...... .. ..... .. .... ........",
"...... ..    . .... ... ........",
"...... ................ ........",
"...... ................ ........",
".....  ................ ........",
"..... ................. ........",
"..... ................. ........",
"..... ................. ........",
"..... .................  .......",
"..... .................. .......",
".....      ............. .......",
"..........               .......",
"....................  ..........",
"................................",
"................................"
};
