/* XPM */
static char *_4ae76f00f034e26bbc2e60923b29a9eiIMmdL5ba96YbIyn[] = {
/* columns rows colors chars-per-pixel */
"32 32 4 1 ",
"  c #E91E63",
". c #66AC5B",
"X c #673AB7",
"o c #9C27B0",
/* pixels */
"................................",
"................................",
"................................",
"................................",
"................................",
"................................",
"................................",
"................................",
"................................",
"................ ...............",
"...............  ........  .....",
"............          ..   .....",
"........     XXXXXXXX  .   .....",
"........ XXXXX XXXXXXX     .....",
"........ XXXXXXXXXXXXX     .....",
"........  XXXXXXXXXXXX     .....",
".........  XXXXXoXXXXX     .....",
"..........    XooXXX       .....",
"............. oooXX  ...   .....",
"..............o     .....  .....",
"..............o.................",
"................................",
"................................",
"................................",
"................................",
"................................",
"................................",
"................................",
"................................",
"................................",
"................................",
"................................"
};
