/* XPM */
static char *a33959f6acc94100a4b6ce8a2d360836sfmWTOyAttoqcKYx[] = {
/* columns rows colors chars-per-pixel */
"32 32 2 1 ",
"  c black",
". c #66AC5B",
/* pixels */
"................................",
"................................",
"................................",
"................................",
"............    ................",
"..........   ..   ..............",
".......... ......  .............",
".......... .. . .. .............",
".......... ....... .............",
"..........  .. ... .............",
"...........  ....  .............",
"............      ..............",
"............. ... ..............",
".........  .. ... ..............",
"..........    ... ..............",
"............ ....     ..........",
"...........  .... ..............",
"........... ..... ..............",
"........... ....  ..............",
"........... .... ...............",
"...........      ...............",
"........... ... ................",
"..........  ...  ...............",
".......... ..... ...............",
"......... ...... ...............",
"........  ......  ..............",
"........ ........ ..............",
"........ ........  .............",
".................. .............",
"................................",
"................................",
"................................"
};
