/* XPM */
static char *c52958c409c44788a229a673d0be97738LadQ3XJG9rOKw4E[] = {
/* columns rows colors chars-per-pixel */
"32 32 2 1 ",
"  c black",
". c none",
/* pixels */
"  ......... ......... ........ .",
".  ........  .......  ........ .",
"..  ........  .....  ........  .",
"...  ........ ....  ......... ..",
"....     ....      .....     ...",
"..... .. .... .... ..... ... ...",
"..... .. .... .... ..... ... ...",
".....    ....      .....     ...",
"..   ........................  .",
".  ...........................  ",
"  ............................. ",
" .............................. ",
".....    ... ....  ......  .....",
"..... .. ... .... ......  ......",
"..... .. ...  ..................",
"..... .. ...  .....     ........",
".....  . .... ..... ... ........",
"...  .   .......... ..  .     ..",
".   ............... .. ......  .",
"  .........  ......    .........",
" ........   ................... ",
"......... ....................  ",
"............. ..............   .",
" ............ .............. ...",
"   ..   ..........  ....    ....",
"..    .  ........ .  ... .. ....",
".... ... ........ .. ... .  ....",
".... ... ........ .  ...   . ...",
"...      ........   ........ ...",
".   .....  ..... ....  .....  ..",
"  ........  ...  ..... ......  .",
" .......... ..  ......  ......  "
};
