/* XPM */
static char *_51445ef350240eef93bdad873f2b950BDvjj1eqahdpMknV[] = {
/* columns rows colors chars-per-pixel */
"32 32 4 1 ",
"  c None",
". c #311B92",
"X c #F06292",
"o c #EA80FC",
/* pixels */
"        .....          ....     ",
"      .XX..oXX.   .oXX...XX.    ",
"     .X..X.X..o  .o...X.o..X.   ",
"    .X...X.X..X  X...Xo.X...X.  ",
"   oXoX.X..X.XX .X...XX..X.o..  ",
"  oX.X.X...oX..o..XXXoX..XX.... ",
"  X...X...XXX.X.o.........oXX.  ",
"  .X...X.o...oXX.X..XXXo..X..X  ",
"  .X..XX.X..o.....X.X..X.X...X  ",
"  XX.XXoo..X.X....XX...X.X...X  ",
"  oXX...oXXX  X...Xoo.X...X.X.  ",
"  ......XX..  XX.X.XoX....oX..  ",
".oXXXo.o..XX   XXXX.X....oX...  ",
".X...X.X..X    ...X..X..XX.X.   ",
" .X..X..XX      .oX..X..X...X   ",
" .X.X...    oX   X...X.X....X.  ",
"  .X.. X  .oX.X  .o.X..X...X.   ",
"   ..oX.Xo.X...X  .X...oo.X.    ",
"     X...X.X..X.X   .....X.     ",
"    X.X.XX.X.XoX.X              ",
"  oX.XoX...oXoX...X             ",
"  X...X..XX..X...X         .XX. ",
"  .X.X..X..X..X.XX    .  ..o..X.",
"  .XXo..X.Xo..oX.    .oXX.X...Xo",
"  .......Xo.XXXo     o..XoX....X",
"   .XXo...XX...XX   .X...XoX..X.",
"   X..Xo..X.....X   ..X...o.XX. ",
"   X...X..X....X   oXX.XXXX...  ",
"   X..X...oX..X    X...X...o..  ",
"    XX..    XX     .X.XoX...X   ",
"                    .X..oX.XX   ",
"                     .oXX.X.    "
};
