/* XPM */
static char *a51916eced60486cdab274b6e75ba919FVn62owZudpG5PXF[] = {
/* columns rows colors chars-per-pixel */
"32 32 7 1 ",
"  c None",
". c black",
"X c #821212",
"o c #B71C1C",
"O c #C62828",
"+ c #DEB46A",
"@ c #FFD180",
/* pixels */
"                                ",
"                                ",
"                                ",
"                                ",
"                                ",
"                                ",
"       X                        ",
"      XoX     XXXXXXX           ",
"     XoXoX XXXoooooooXXXX   XX  ",
"    XoX XXXooooOooooooooXX XooX ",
"    XoXXXoooOOOOOoooooooooXooXoX",
"     XXoXooOOOOOOoooooooooXXXXoX",
"    XXoXooOOOOOOOooooooooooX XoX",
"    XoXXoOOOOOOOoooooooooooXX Xo",
"   XoXXXoOOOOO.oooo.oooooooXoX X",
"  XoXXoXXOOOOoXooooXooooooXXooX ",
"   XXoXoXoOOooooooooooooooX XoX ",
"    XoXXXoooooXXoooXXoooXX  XoX ",
"    XoX  XXXoX@@XoX@@XXXoXX  X  ",
"     X   XoXXX+@@X@@+XXoooX     ",
"        XooX ++++++++ XOOoX     ",
"       XoOOoX        XoOooX     ",
"       XoOOoX        XoOooX     ",
"       XoOooX        XOOooX     ",
"       XoOooX        XoOooX     ",
"       XooooX        XXooX+     ",
"       +XooX+        ++XX+      ",
"       +XooX+          ++       ",
"        +XX+                    ",
"         ++                     ",
"                                ",
"                                "
};
