/* XPM */
static char *_22efadb853f483d91bc502f838f2782DfIHYkZy7HOfRyWD[] = {
/* columns rows colors chars-per-pixel */
"32 32 8 1 ",
"  c None",
". c black",
"X c #821212",
"o c #8F1414",
"O c #B71C1C",
"+ c #D42A2A",
"@ c #DEB46A",
"# c #FFD180",
/* pixels */
"                                ",
"                                ",
"                                ",
"                                ",
"                                ",
"                                ",
"                                ",
"                 .   .          ",
"                 ..  ..         ",
"                 XXX XX         ",
"                 X+X XX         ",
"          XXXXXXXX+X XX         ",
"       XXXOOOOOOX++XXX          ",
"      XoOOOOOOOOXOX+++X         ",
"     XooOOOOOOOOOX++++OXX       ",
"    XooOOOOOOOOOOOO+++OOXXXX    ",
"    XoOOOOOOOOOOOOOOOOOOXOOOX   ",
"    XoOOOOOOOOOOOOOOOOOOXXOOX   ",
"     XoOXOOOXXOOOOOOOOOX@@XXX   ",
"      XXOXOXOOXOXXOOOXXXXXXX    ",
"     XOOXXXOOXXXOOXXXXOOOOOX    ",
"     XOX@@XOX@XOOXX#@XOOOOOOX   ",
"     XX  XOX@@XOX@@@ XOOOOOOOX  ",
"        XOX   XOX    @XXXXXOX   ",
"        XXX   XX     @@@##@XX   ",
"                       @@@@@    ",
"                                ",
"                                ",
"                                ",
"                                ",
"                                ",
"                                "
};
