/* XPM */
static char *_c55399ead8649b9d36c7021ea7acbadp6obUuPO8YmMninn[] = {
/* columns rows colors chars-per-pixel */
"32 32 7 1 ",
"  c None",
". c #821212",
"X c #8F1414",
"o c #B71C1C",
"O c #D42A2A",
"+ c #DEB46A",
"@ c #FFD180",
/* pixels */
"                                ",
"                                ",
"                                ",
"                                ",
"                                ",
"                                ",
"                                ",
"                                ",
"                                ",
"            ..                  ",
"           .oo.     ....        ",
"      ..  .o.........ooo.       ",
"     .oo....ooooooooo.... ...   ",
"    .o...oooooOOOoooooo...ooo.  ",
"    ....oooOOOOOOooooooo....o.. ",
"   .oo.ooOOOOOOOoooooooo.o. .o. ",
"  .o..oooOOOOOOOoooooooo.oX..o. ",
"  .o..oooOOOOOoooooooooo.oX...  ",
"  .o..oooOOOoooooooooooo.oX.o.  ",
"  .o. .oooooooooooooooo.oX..oo. ",
"   . ...oooooooooooooo.oX.  .oo.",
"    .oo..oooooooooXXXX.X.o.. .o.",
"   .o.. +...XXXXXXXXX.....oo. ..",
"   .o.   ++@.........@+++ ..o. .",
"    .      +++++++++++     .o.  ",
"                            .   ",
"                                ",
"                                ",
"                                ",
"                                ",
"                                ",
"                                "
};
