/* XPM */
static char *_e6db566ab474e39b420b9e5c890f634F2OBGnOE9opkKCEK[] = {
/* columns rows colors chars-per-pixel */
"32 32 8 1 ",
"  c None",
". c black",
"X c #821212",
"o c #8F1414",
"O c #B71C1C",
"+ c #D42A2A",
"@ c #DEB46A",
"# c #FFD180",
/* pixels */
"                                ",
"                                ",
"                                ",
"                                ",
"                                ",
"                                ",
"                                ",
"          .   .                 ",
"         ..  ..                 ",
"         XX XXX                 ",
"         XX X+X                 ",
"         XX X+XXXXXXXX          ",
"          XXX++XOOOOOOXXX       ",
"         X+++XOXOOOOOOOOoX      ",
"       XXO++++XOOOOOOOOOooX     ",
"    XXXXOO+++OOOOOOOOOOOOooX    ",
"   XOOOXOOOOOOOOOOOOOOOOOOoX    ",
"   XOOXXOOOOOOOOOOOOOOOOOOoX    ",
"   XXX@@XOOOOOOOOOXXOOOXOoX     ",
"    XXXXXXXOOOXXOXOOXOXOXX      ",
"    XOOOOOXXXXOOXXXOOXXXOOX     ",
"   XOOOOOOX@#XXOOX@XOX@@XOX     ",
"  XOOOOOOOX @@@XOX@@XOX  XX     ",
"   XOXXXXX@    XOX   XOX        ",
"   XX@##@@@     XX   XXX        ",
"    @@@@@                       ",
"                                ",
"                                ",
"                                ",
"                                ",
"                                ",
"                                "
};
